<svg version="1.2" xmlns="http://www.w3.org/2000/svg" viewBox="0 0 453 453" width="453" height="453">
	<defs>
		<linearGradient id="g1" x2="1" gradientUnits="userSpaceOnUse" gradientTransform="matrix(600,-624,615.827,592.142,-88,812)">
			<stop offset="0" stop-color="#e40035"/>
			<stop offset=".24" stop-color="#f60a48"/>
			<stop offset=".352" stop-color="#f20755"/>
			<stop offset=".494" stop-color="#dc087d"/>
			<stop offset=".745" stop-color="#9717e7"/>
			<stop offset="1" stop-color="#6c00f5"/>
		</linearGradient>
		<linearGradient id="g2" x2="1" gradientUnits="userSpaceOnUse" gradientTransform="matrix(600,-624,510.469,490.835,-88,812)">
			<stop offset="0" stop-color="#e40035"/>
			<stop offset=".24" stop-color="#f60a48"/>
			<stop offset=".352" stop-color="#f20755"/>
			<stop offset=".494" stop-color="#dc087d"/>
			<stop offset=".745" stop-color="#9717e7"/>
			<stop offset="1" stop-color="#6c00f5"/>
		</linearGradient>
		<linearGradient id="g3" x2="1" gradientUnits="userSpaceOnUse" gradientTransform="matrix(600,-624,765.44,736,-88,812)">
			<stop offset="0" stop-color="#e40035"/>
			<stop offset=".24" stop-color="#f60a48"/>
			<stop offset=".352" stop-color="#f20755"/>
			<stop offset=".494" stop-color="#dc087d"/>
			<stop offset=".745" stop-color="#9717e7"/>
			<stop offset="1" stop-color="#6c00f5"/>
		</linearGradient>
		<linearGradient id="g4" x2="1" gradientUnits="userSpaceOnUse" gradientTransform="matrix(400,424,-417.402,393.775,12,188)">
			<stop offset="0" stop-color="#ff31d9" stop-opacity="1"/>
			<stop offset="1" stop-color="#ff5be1" stop-opacity="0"/>
		</linearGradient>
		<linearGradient id="g5" x2="1" gradientUnits="userSpaceOnUse" gradientTransform="matrix(400,424,-520.941,491.454,12,188)">
			<stop offset="0" stop-color="#ff31d9" stop-opacity="1"/>
			<stop offset="1" stop-color="#ff5be1" stop-opacity="0"/>
		</linearGradient>
		<linearGradient id="g6" x2="1" gradientUnits="userSpaceOnUse" gradientTransform="matrix(400,424,-347.311,327.652,12,188)">
			<stop offset="0" stop-color="#ff31d9" stop-opacity="1"/>
			<stop offset="1" stop-color="#ff5be1" stop-opacity="0"/>
		</linearGradient>
	</defs>
	<style>
		.s0 { fill: url(#g1) } 
		.s1 { fill: url(#g2) } 
		.s2 { fill: url(#g3) } 
		.s3 { fill: url(#g4) } 
		.s4 { fill: url(#g5) } 
		.s5 { fill: url(#g6) } 
	</style>
	<g>
		<g>
			<path class="s0" d="m188.63 85.74c1.89-5.4 3.78-10.39 5.39-15.47 1.27-4.01 3.43-5.73 7.97-5.66q25 0.36 49.99-0.14c4.02-0.08 5.53 1.45 6.75 4.9 12.25 34.7 24.66 69.34 36.99 104.01 14.71 41.41 29.36 82.85 44.09 124.26 9.49 26.66 19.08 53.3 28.63 79.95 0.17 0.47 0.37 0.92 0.53 1.4 2.65 7.82 2.38 7.65-5.64 8.35-7.86 0.69-13.17-2.21-18.78-7.61-27.38-26.33-55.22-52.18-83-78.09-3.05-2.83-4.54-5.76-4.53-9.96 0.1-30.5 0.01-60.99 0.03-91.49 0-7.91 0.03-7.95-8.13-7.95q-22.75 0-45.49-0.01c-7.32-0.01-8.04 0.64-8 7.93 0.14 30.49 0.23 60.98 0.54 91.47 0.05 4.62-1.62 7.6-4.99 10.7-17.27 15.92-34.22 32.17-51.34 48.26-12.14 11.4-24.46 22.62-36.48 34.14-3.01 2.88-6.33 2.51-9.76 2.45-12.03-0.17-12.77 1.92-8.07-11.25 13.63-38.26 27.06-76.59 40.69-114.85 13.74-38.58 27.63-77.1 41.41-115.66 7.07-19.76 14.05-39.54 21.2-59.68zm47.2 59.81c-2.88-7.93-4.88-16.21-8.48-23.99-1.19 0.64-1.64 0.72-1.75 0.96-5.4 11.96-8.54 24.73-13.07 37-0.74 2 0.39 3.19 2.53 3.2 7.3 0.01 14.6 0.06 21.9-0.06 2.95-0.05 4.26-1.61 3.21-4.62-1.36-3.91-2.73-7.83-4.34-12.49z"/>
			<path class="s1" d="m97.87 207.88c-15.28 9.45-30.26 18.69-45.02 27.79 0.56 3.14 2.68 3.72 4.31 4.72 15.17 9.35 30.31 18.76 45.58 27.94 3.78 2.26 5.03 4.52 3.25 8.87-3.34 8.17-6.14 16.55-9.14 24.85-1.14 3.18-2.54 4.07-5.87 1.99-26.28-16.42-52.65-32.68-79.03-48.92-14.87-9.15-15.01-27.37-0.11-36.63 22.77-14.16 45.6-28.23 68.41-42.33q16.14-9.99 32.32-19.92c1.79-1.09 3.41-2.73 6.1-2.43 1.4 2.92 0.77 6.12 0.8 9.18 0.09 8.66-0.48 17.33 0.42 25.97 0.41 3.93-0.92 6.55-4.56 8.5-5.86 3.14-11.46 6.79-17.46 10.42z"/>
			<path class="s2" d="m387.72 185.22c18.12 11.27 35.96 22.3 53.75 33.43 11.35 7.11 14.1 19.27 6.98 30.11-1.49 2.27-3.41 4.06-5.71 5.47q-40 24.59-80 49.16c-5.17 3.18-5.16 3.11-7.11-2.46-2.75-7.85-5.39-15.75-8.5-23.47-1.69-4.18-0.96-6.55 3-8.91 15.58-9.29 30.99-18.88 46.44-28.39 1.37-0.85 3.1-1.35 3.73-3.21-0.39-2.13-2.43-2.54-3.9-3.45-19.64-12.24-39.27-24.49-59-36.57-3.11-1.91-4.25-4.08-4.12-7.71 0.34-10.14 0.28-20.3 0.41-30.45 0.02-1.63-0.33-3.33 1.03-5.68 18.03 9.99 35.11 21.38 53 32.13z"/>
		</g>
		<g>
			<path class="s3" d="m188.63 85.74c1.89-5.4 3.78-10.39 5.39-15.47 1.27-4.01 3.43-5.73 7.97-5.66q25 0.36 49.99-0.14c4.02-0.08 5.53 1.45 6.75 4.9 12.25 34.7 24.66 69.34 36.99 104.01 14.71 41.41 29.36 82.85 44.09 124.26 9.49 26.66 19.08 53.3 28.63 79.95 0.17 0.47 0.37 0.92 0.53 1.4 2.65 7.82 2.38 7.65-5.64 8.35-7.86 0.69-13.17-2.21-18.78-7.61-27.38-26.33-55.22-52.18-83-78.09-3.05-2.83-4.54-5.76-4.53-9.96 0.1-30.5 0.01-60.99 0.03-91.49 0-7.91 0.03-7.95-8.13-7.95q-22.75 0-45.49-0.01c-7.32-0.01-8.04 0.64-8 7.93 0.14 30.49 0.23 60.98 0.54 91.47 0.05 4.62-1.62 7.6-4.99 10.7-17.27 15.92-34.22 32.17-51.34 48.26-12.14 11.4-24.46 22.62-36.48 34.14-3.01 2.88-6.33 2.51-9.76 2.45-12.03-0.17-12.77 1.92-8.07-11.25 13.63-38.26 27.06-76.59 40.69-114.85 13.74-38.58 27.63-77.1 41.41-115.66 7.07-19.76 14.05-39.54 21.2-59.68zm47.2 59.81c-2.88-7.93-4.88-16.21-8.48-23.99-1.19 0.64-1.64 0.72-1.75 0.96-5.4 11.96-8.54 24.73-13.07 37-0.74 2 0.39 3.19 2.53 3.2 7.3 0.01 14.6 0.06 21.9-0.06 2.95-0.05 4.26-1.61 3.21-4.62-1.36-3.91-2.73-7.83-4.34-12.49z"/>
			<path class="s4" d="m97.87 207.88c-15.28 9.45-30.26 18.69-45.02 27.79 0.56 3.14 2.68 3.72 4.31 4.72 15.17 9.35 30.31 18.76 45.58 27.94 3.78 2.26 5.03 4.52 3.25 8.87-3.34 8.17-6.14 16.55-9.14 24.85-1.14 3.18-2.54 4.07-5.87 1.99-26.28-16.42-52.65-32.68-79.03-48.92-14.87-9.15-15.01-27.37-0.11-36.63 22.77-14.16 45.6-28.23 68.41-42.33q16.14-9.99 32.32-19.92c1.79-1.09 3.41-2.73 6.1-2.43 1.4 2.92 0.77 6.12 0.8 9.18 0.09 8.66-0.48 17.33 0.42 25.97 0.41 3.93-0.92 6.55-4.56 8.5-5.86 3.14-11.46 6.79-17.46 10.42z"/>
			<path class="s5" d="m387.72 185.22c18.12 11.27 35.96 22.3 53.75 33.43 11.35 7.11 14.1 19.27 6.98 30.11-1.49 2.27-3.41 4.06-5.71 5.47q-40 24.59-80 49.16c-5.17 3.18-5.16 3.11-7.11-2.46-2.75-7.85-5.39-15.75-8.5-23.47-1.69-4.18-0.96-6.55 3-8.91 15.58-9.29 30.99-18.88 46.44-28.39 1.37-0.85 3.1-1.35 3.73-3.21-0.39-2.13-2.43-2.54-3.9-3.45-19.64-12.24-39.27-24.49-59-36.57-3.11-1.91-4.25-4.08-4.12-7.71 0.34-10.14 0.28-20.3 0.41-30.45 0.02-1.63-0.33-3.33 1.03-5.68 18.03 9.99 35.11 21.38 53 32.13z"/>
		</g>
	</g>
</svg>